# xmcd
#
# Track frame offsets: 
#        150
#        17504
#        38938
#        58618
#        75369
#        95186
#        113343
#        134496
#        153315
#        179567
#        195190
#
# Disc length: 2756 seconds
#
# Revision: 0
# Processed by: cddbd v1.5.2PL0 Copyright (c) Steve Scherf et al.
# Submitted via: ExactAudioCopy v0.99pb5
#
DISCID=820ac20b
DTITLE=Maple Bee - These Four Worlds
DYEAR=2011
DGENRE=Bard
TTITLE0=01. The Four Worlds
TTITLE1=02. No Ropes On Me
TTITLE2=03. Blackbird
TTITLE3=04. Keep This Moment Alive
TTITLE4=05. Metal Bird
TTITLE5=06. It Isn't Gonna Be That Way
TTITLE6=07. Twig That Cracks
TTITLE7=08. Losing It All To You
TTITLE8=09. The Place In Between
TTITLE9=10. Volta
TTITLE10=11. You Be My Heart
EXTD=
EXTT0=
EXTT1=
EXTT2=
EXTT3=
EXTT4=
EXTT5=
EXTT6=
EXTT7=
EXTT8=
EXTT9=
EXTT10=
PLAYORDER=
